<svg width="24" height="24" viewBox="0 0 24 24" fill="none" xmlns="http://www.w3.org/2000/svg">
<path d="M0 6.39569C0 2.86345 2.86345 0 6.39569 0H17.6043C21.1366 0 24 2.86345 24 6.39569V17.6043C24 21.1366 21.1366 24 17.6043 24H6.39569C2.86345 24 0 21.1366 0 17.6043V6.39569Z" fill="#F06A6A"/>
<path fill-rule="evenodd" clip-rule="evenodd" d="M15.4056 12.1393C13.8692 12.1393 12.6238 13.3848 12.6238 14.9213C12.6238 16.4577 13.8692 17.7032 15.4056 17.7032C16.942 17.7032 18.1875 16.4577 18.1875 14.9213C18.1875 13.3848 16.942 12.1393 15.4056 12.1393ZM8.17803 12.1395C6.64164 12.1395 5.39613 13.3848 5.39613 14.9213C5.39613 16.4577 6.64164 17.7032 8.17803 17.7032C9.71448 17.7032 10.96 16.4577 10.96 14.9213C10.96 13.3848 9.71448 12.1395 8.17803 12.1395ZM14.5737 8.66184C14.5737 10.1983 13.3282 11.444 11.7919 11.444C10.2554 11.444 9.00993 10.1983 9.00993 8.66184C9.00993 7.12564 10.2554 5.88 11.7919 5.88C13.3282 5.88 14.5737 7.12564 14.5737 8.66184Z" fill="white"/>
</svg>
