<svg width="16" height="16" viewBox="0 0 16 16" fill="none" xmlns="http://www.w3.org/2000/svg">
<g clip-path="url(#clip0_195_2879)">
<g clip-path="url(#clip1_195_2879)">
<g clip-path="url(#clip2_195_2879)">
<g clip-path="url(#clip3_195_2879)">
<path d="M13.7725 12.1891L8.48005 1.60421C8.37587 1.37501 8.27169 1.33334 8.14667 1.33334C8.04249 1.33334 7.91747 1.37501 7.79245 1.58337C7.04234 2.77104 6.70896 4.14624 6.70896 5.58395C6.70896 7.58424 7.72994 9.45951 9.23016 12.4808C9.39685 12.8142 9.52187 12.8767 9.81358 12.8767H13.4808C13.7516 12.8767 13.8975 12.7725 13.8975 12.5641C13.8975 12.4599 13.8767 12.3974 13.7725 12.1891ZM6.08387 7.18835C5.66714 6.56326 5.54212 6.52159 5.43794 6.52159C5.33376 6.52159 5.27125 6.56326 5.08373 6.93831L2.43751 12.2307C2.35416 12.3974 2.33333 12.4599 2.33333 12.5433C2.33333 12.71 2.47918 12.8767 2.79173 12.8767H6.52143C6.77147 12.8767 6.959 12.6683 7.06318 12.2724C7.1882 11.7723 7.22987 11.3348 7.22987 10.8139C7.22987 9.35533 6.58394 7.93846 6.08387 7.18835Z" fill="#1868DB"/>
</g>
</g>
</g>
</g>
<defs>
<clipPath id="clip0_195_2879">
<rect width="16" height="16" fill="white"/>
</clipPath>
<clipPath id="clip1_195_2879">
<rect width="16" height="16" fill="white"/>
</clipPath>
<clipPath id="clip2_195_2879">
<rect width="16" height="16" fill="white"/>
</clipPath>
<clipPath id="clip3_195_2879">
<rect width="11.5642" height="11.5433" fill="white" transform="translate(2.33333 1.33334)"/>
</clipPath>
</defs>
</svg>
