<svg width="16" height="16" viewBox="0 0 16 16" fill="none" xmlns="http://www.w3.org/2000/svg">
<g clip-path="url(#clip0_188_3081)">
<g clip-path="url(#clip1_188_3081)">
<path d="M0 4C0 1.79086 1.79086 0 4 0H12C14.2091 0 16 1.79086 16 4V12C16 14.2091 14.2091 16 12 16H4C1.79086 16 0 14.2091 0 12V4Z" fill="#94C748"/>
<path d="M11.8951 7.84222L11.2377 11.8582C11.1948 12.1012 11.0233 12.2441 10.7803 12.2441H5.2065C4.96354 12.2441 4.79204 12.1012 4.74917 11.8582L3.59153 4.69802C3.54865 4.45506 3.67728 4.29785 3.90595 4.29785H12.0809C12.3095 4.29785 12.4382 4.45506 12.3953 4.69802L12.0809 6.58454C12.038 6.85609 11.8808 6.97042 11.6235 6.97042H6.70714C6.63569 6.97042 6.59281 7.0133 6.6071 7.09905L6.99298 9.47149C7.00727 9.52866 7.05015 9.57153 7.10732 9.57153H8.8795C8.93667 9.57153 8.97954 9.52866 8.99383 9.47149L9.26538 7.75647C9.29396 7.54209 9.43688 7.45634 9.63697 7.45634H11.5664C11.8522 7.45634 11.9379 7.59926 11.8951 7.84222Z" fill="#101214"/>
</g>
</g>
<defs>
<clipPath id="clip0_188_3081">
<rect width="16" height="16" fill="white"/>
</clipPath>
<clipPath id="clip1_188_3081">
<rect width="16" height="16" fill="white"/>
</clipPath>
</defs>
</svg>
