<svg width="24" height="24" viewBox="0 0 24 24" fill="none" xmlns="http://www.w3.org/2000/svg">
<path d="M0 6.39569C0 2.86345 2.86345 0 6.39569 0H17.6043C21.1366 0 24 2.86345 24 6.39569V17.6043C24 21.1366 21.1366 24 17.6043 24H6.39569C2.86345 24 0 21.1366 0 17.6043V6.39569Z" fill="#0071F7"/>
<path d="M19.1213 14.6812C19.3076 14.942 19.2703 15.2773 19.0468 15.4636C18.786 15.6499 18.4134 15.6127 18.2271 15.3891L16.923 13.7125L15.6562 15.3519C15.4699 15.6127 15.0973 15.6127 14.8365 15.4264C14.5757 15.2401 14.5385 14.9048 14.7248 14.6439L16.2151 12.7065L14.7248 10.769C14.5385 10.5082 14.613 10.1356 14.8365 9.94936C15.0973 9.76306 15.4699 9.83758 15.6562 10.0611L16.923 11.7378L18.2271 10.1356C18.4134 9.87484 18.7487 9.83758 19.0468 10.0239C19.3076 10.2102 19.3076 10.5828 19.1213 10.8436L17.6682 12.7438L19.1213 14.6812ZM12.3402 14.4577C11.3715 14.4577 10.589 13.7125 10.589 12.7438C10.589 11.8123 11.3715 11.0299 12.3402 11.0299C13.3089 11.0299 14.0914 11.8123 14.0914 12.7438C14.0541 13.7125 13.2717 14.4577 12.3402 14.4577ZM7.19851 14.4577C6.22978 14.4577 5.44735 13.7125 5.44735 12.7438C5.44735 11.8123 6.22978 11.0299 7.19851 11.0299C8.16723 11.0299 8.94967 11.8123 8.94967 12.7438C8.94967 13.7125 8.16723 14.4577 7.19851 14.4577ZM12.3402 9.9121C11.2597 9.9121 10.291 10.5082 9.80661 11.4024C9.32225 10.5082 8.35353 9.9121 7.23577 9.9121C6.56511 9.9121 5.96897 10.1356 5.48461 10.471V8.08642C5.48461 7.78835 5.2238 7.52754 4.92573 7.52754C4.5904 7.52754 4.32959 7.78835 4.32959 8.08642V12.781C4.36685 14.3459 5.63364 15.5754 7.19851 15.5754C8.31627 15.5754 9.28499 14.942 9.76936 14.0478C10.2537 14.942 11.2224 15.5754 12.3029 15.5754C13.9051 15.5754 15.2091 14.3086 15.2091 12.7065C15.2464 11.1789 13.9423 9.9121 12.3402 9.9121Z" fill="white"/>
</svg>
