<svg width="16" height="16" viewBox="0 0 16 16" fill="none" xmlns="http://www.w3.org/2000/svg">
<g clip-path="url(#clip0_188_2690)">
<g clip-path="url(#clip1_188_2690)">
<rect width="16" height="16" rx="4" fill="#1868DB"/>
<g clip-path="url(#clip2_188_2690)">
<path d="M11.5799 9.51003C9.11097 8.31624 8.38972 8.13786 7.34946 8.13786C6.12888 8.13786 5.08862 8.64556 4.15932 10.0726L4.00674 10.3059C3.88191 10.498 3.85417 10.5666 3.85417 10.6489C3.85417 10.7313 3.89578 10.7999 4.04835 10.8959L5.61569 11.8702C5.69891 11.9251 5.76826 11.9525 5.83761 11.9525C5.92083 11.9525 5.97631 11.9113 6.05953 11.7878L6.30919 11.4036C6.69756 10.8136 7.04431 10.6215 7.48816 10.6215C7.87652 10.6215 8.33424 10.7313 8.90292 11.0057L10.5396 11.7741C10.706 11.8564 10.8864 11.8153 10.9696 11.6232L11.7463 9.92168C11.8295 9.72958 11.774 9.60608 11.5799 9.51003ZM4.38124 6.50497C6.85013 7.69876 7.57138 7.87714 8.61164 7.87714C9.83222 7.87714 10.8725 7.36944 11.8018 5.94238L11.9544 5.70911C12.0792 5.517 12.1069 5.4484 12.1069 5.36607C12.1069 5.28373 12.0653 5.21513 11.9127 5.11907L10.3454 4.14483C10.2622 4.08994 10.1928 4.0625 10.1235 4.0625C10.0403 4.0625 9.98479 4.10367 9.90157 4.22716L9.65191 4.61137C9.26354 5.2014 8.91679 5.39351 8.47294 5.39351C8.08458 5.39351 7.62686 5.28373 7.05818 5.0093L5.4215 4.24088C5.25506 4.15855 5.07475 4.19972 4.99153 4.39182L4.2148 6.09332C4.13158 6.28542 4.18706 6.40892 4.38124 6.50497Z" fill="white"/>
</g>
</g>
</g>
<defs>
<clipPath id="clip0_188_2690">
<rect width="16" height="16" fill="white"/>
</clipPath>
<clipPath id="clip1_188_2690">
<rect width="16" height="16" fill="white"/>
</clipPath>
<clipPath id="clip2_188_2690">
<rect width="8.25276" height="7.89" fill="white" transform="translate(3.85417 4.0625)"/>
</clipPath>
</defs>
</svg>
