<svg width="16" height="16" viewBox="0 0 16 16" fill="none" xmlns="http://www.w3.org/2000/svg">
<g clip-path="url(#clip0_188_2980)">
<g clip-path="url(#clip1_188_2980)">
<path d="M0 4C0 1.79086 1.79086 0 4 0H12C14.2091 0 16 1.79086 16 4V12C16 14.2091 14.2091 16 12 16H4C1.79086 16 0 14.2091 0 12V4Z" fill="#FFC716"/>
<path d="M10.9535 11.6133C10.149 12.2717 9.12062 12.6667 8.00001 12.6667H4.26668V12.3556L6.82569 9.83436C7.16453 10.0517 7.56755 10.1778 8.00001 10.1778C8.43251 10.1778 8.83556 10.0517 9.17441 9.8343L10.9535 11.6133Z" fill="#101214"/>
<path d="M11.6134 10.9534C12.2717 10.1489 12.6667 9.12058 12.6667 8C12.6667 6.87943 12.2717 5.8511 11.6134 5.04663L9.83437 6.82569C10.0517 7.16453 10.1778 7.56754 10.1778 8C10.1778 8.43246 10.0517 8.83548 9.83437 9.17432L11.6134 10.9534Z" fill="#101214"/>
<path d="M10.9535 4.38666L9.17442 6.1657C8.83556 5.9483 8.43251 5.82222 8.00001 5.82222C7.56755 5.82222 7.16453 5.94828 6.82569 6.16565L5.04664 4.3866C5.85111 3.72829 6.87944 3.33334 8.00001 3.33334C9.12062 3.33334 10.149 3.72832 10.9535 4.38666Z" fill="#101214"/>
<path d="M4.38667 5.04656C3.72833 5.85103 3.33334 6.87939 3.33334 8C3.33334 9.12061 3.72833 10.149 4.38667 10.9535L6.16571 9.17441C5.94831 8.83555 5.82223 8.4325 5.82223 8C5.82223 7.56751 5.94831 7.16446 6.16571 6.8256L4.38667 5.04656Z" fill="#101214"/>
</g>
</g>
<defs>
<clipPath id="clip0_188_2980">
<rect width="16" height="16" fill="white"/>
</clipPath>
<clipPath id="clip1_188_2980">
<rect width="16" height="16" fill="white"/>
</clipPath>
</defs>
</svg>
