<svg width="24" height="24" viewBox="0 0 24 24" fill="none" xmlns="http://www.w3.org/2000/svg">
<g clip-path="url(#clip0_188_7051)">
<path d="M11.6396 11.7913C11.6396 11.2259 11.8561 10.6837 12.2417 10.2839C12.6272 9.88406 13.1501 9.65945 13.6953 9.65945C14.2405 9.65945 14.7634 9.88406 15.149 10.2839C15.5345 10.6837 15.7511 11.2259 15.7511 11.7913C15.7511 12.3568 15.5345 12.899 15.149 13.2988C14.7634 13.6986 14.2405 13.9232 13.6953 13.9232C13.1501 13.9232 12.6272 13.6986 12.2417 13.2988C11.8561 12.899 11.6396 12.3568 11.6396 11.7913V11.7913Z" fill="#1ABCFE"/>
<path d="M7.52774 16.0551C7.52774 15.4897 7.74433 14.9475 8.12986 14.5477C8.51539 14.1479 9.03828 13.9232 9.5835 13.9232H11.6393V16.0551C11.6393 16.6206 11.4227 17.1628 11.0371 17.5626C10.6516 17.9624 10.1287 18.187 9.5835 18.187C9.03828 18.187 8.51539 17.9624 8.12986 17.5626C7.74433 17.1628 7.52774 16.6206 7.52774 16.0551V16.0551Z" fill="#0ACF83"/>
<path d="M11.6396 5.39566V9.65945H13.6953C14.2405 9.65945 14.7634 9.43484 15.149 9.03503C15.5345 8.63523 15.7511 8.09297 15.7511 7.52756C15.7511 6.96214 15.5345 6.41989 15.149 6.02008C14.7634 5.62027 14.2405 5.39566 13.6953 5.39566H11.6396Z" fill="#FF7262"/>
<path d="M7.52774 7.52756C7.52774 8.09297 7.74433 8.63523 8.12986 9.03503C8.51539 9.43484 9.03828 9.65945 9.5835 9.65945H11.6393V5.39566H9.5835C9.03828 5.39566 8.51539 5.62027 8.12986 6.02008C7.74433 6.41989 7.52774 6.96214 7.52774 7.52756V7.52756Z" fill="#F24E1E"/>
<path d="M7.52774 11.7913C7.52774 12.3568 7.74433 12.899 8.12986 13.2988C8.51539 13.6986 9.03828 13.9232 9.5835 13.9232H11.6393V9.65945H9.5835C9.03828 9.65945 8.51539 9.88406 8.12986 10.2839C7.74433 10.6837 7.52774 11.2259 7.52774 11.7913V11.7913Z" fill="#A259FF"/>
</g>
<defs>
<clipPath id="clip0_188_7051">
<rect width="8.22303" height="12.7914" fill="white" transform="translate(7.52803 5.39571)"/>
</clipPath>
</defs>
</svg>
