<svg width="24" height="24" viewBox="0 0 24 24" fill="none" xmlns="http://www.w3.org/2000/svg">
<g clip-path="url(#clip0_188_7205)">
<path d="M4.55313 17.2044L5.30527 18.4969C5.46156 18.769 5.68623 18.9828 5.94997 19.1383L8.63621 14.5125H3.26373C3.26373 14.8138 3.34188 15.115 3.49817 15.3872L4.55313 17.2044Z" fill="#0066DA"/>
<path d="M11.7913 9.07049L9.10508 4.4447C8.84134 4.60019 8.61667 4.81399 8.46038 5.08609L3.49817 13.638C3.34475 13.9042 3.26394 14.2057 3.26373 14.5126H8.63621L11.7913 9.07049Z" fill="#00AC47"/>
<path d="M17.6321 19.1383C17.8958 18.9828 18.1205 18.769 18.2768 18.4969L18.5894 17.9624L20.0839 15.3872C20.2402 15.115 20.3183 14.8138 20.3183 14.5125H14.9455L16.0887 16.7477L17.6321 19.1383Z" fill="#EA4335"/>
<path d="M11.7919 9.07055L14.4781 4.44477C14.2144 4.28928 13.9116 4.21153 13.599 4.21153H9.98478C9.6722 4.21153 9.36939 4.29899 9.10565 4.44477L11.7919 9.07055Z" fill="#00832D"/>
<path d="M14.9459 14.5125H8.63567L5.94943 19.1383C6.21317 19.2938 6.51598 19.3715 6.82856 19.3715H16.753C17.0656 19.3715 17.3684 19.2841 17.6321 19.1383L14.9459 14.5125Z" fill="#2684FC"/>
<path d="M17.6034 9.36203L15.1223 5.08609C14.966 4.81399 14.7413 4.60019 14.4776 4.4447L11.7913 9.07049L14.9464 14.5126H20.3091C20.3091 14.2113 20.231 13.9101 20.0747 13.638L17.6034 9.36203Z" fill="#FFBA00"/>
</g>
<defs>
<clipPath id="clip0_188_7205">
<rect width="17.0552" height="15.1601" fill="white" transform="translate(3.2637 4.21141)"/>
</clipPath>
</defs>
</svg>
