<svg width="24" height="24" viewBox="0 0 24 24" fill="none" xmlns="http://www.w3.org/2000/svg">
<path d="M0 6.39569C0 2.86345 2.86345 0 6.39569 0H17.6043C21.1366 0 24 2.86345 24 6.39569V17.6043C24 21.1366 21.1366 24 17.6043 24H6.39569C2.86345 24 0 21.1366 0 17.6043V6.39569Z" fill="#292A2E"/>
<path fill-rule="evenodd" clip-rule="evenodd" d="M11.7914 4.32971C7.671 4.32971 4.32974 7.7549 4.32974 11.9803C4.32974 15.3605 6.46774 18.2282 9.43251 19.2398C9.80542 19.3107 9.94233 19.0739 9.94233 18.8718C9.94233 18.6894 9.93541 18.0867 9.93219 17.4474C7.85634 17.9102 7.41831 16.5448 7.41831 16.5448C7.07889 15.6605 6.58982 15.4253 6.58982 15.4253C5.91282 14.9505 6.64085 14.9603 6.64085 14.9603C7.39014 15.0142 7.78468 15.7486 7.78468 15.7486C8.45018 16.9182 9.53024 16.5801 9.95604 16.3846C10.023 15.8902 10.2164 15.5527 10.4298 15.3616C8.77243 15.1681 7.0302 14.5121 7.0302 11.5807C7.0302 10.7454 7.32169 10.0629 7.79901 9.52716C7.72153 9.33446 7.46613 8.55634 7.87129 7.50253C7.87129 7.50253 8.49788 7.29691 9.92379 8.28674C10.519 8.11723 11.1573 8.03222 11.7914 8.02931C12.4256 8.03222 13.0644 8.11723 13.6607 8.28674C15.0849 7.29691 15.7106 7.50253 15.7106 7.50253C16.1167 8.55634 15.8612 9.33446 15.7837 9.52716C16.2622 10.0629 16.5517 10.7454 16.5517 11.5807C16.5517 14.5191 14.8061 15.1661 13.1446 15.3555C13.4122 15.5929 13.6507 16.0585 13.6507 16.7723C13.6507 17.7959 13.642 18.6198 13.642 18.8718C13.642 19.0754 13.7763 19.3139 14.1546 19.2388C17.1177 18.2261 19.253 15.3593 19.253 11.9803C19.253 7.7549 15.9122 4.32971 11.7914 4.32971Z" fill="white"/>
</svg>
