<svg width="24" height="24" viewBox="0 0 24 24" fill="none" xmlns="http://www.w3.org/2000/svg">
<path d="M18.7657 11.3365L18.7469 11.2861L16.8415 6.31582C16.8029 6.21822 16.7343 6.13543 16.6456 6.07943C16.5794 6.03704 16.5041 6.01076 16.4259 6.00268C16.3477 5.9946 16.2687 6.00496 16.1952 6.03292C16.1217 6.06088 16.0558 6.10567 16.0028 6.16369C15.9497 6.22171 15.911 6.29136 15.8897 6.36705L14.6036 10.3047H9.39529L8.10917 6.36705C8.08771 6.29147 8.0489 6.22196 7.99582 6.16405C7.94274 6.10613 7.87686 6.06142 7.80344 6.03349C7.73001 6.00555 7.65108 5.99515 7.57293 6.00313C7.49478 6.01111 7.41957 6.03724 7.35331 6.07943C7.26457 6.13543 7.19595 6.21822 7.15738 6.31582L5.25291 11.287L5.23314 11.3365C4.95895 12.0531 4.92517 12.8394 5.1369 13.5769C5.34862 14.3144 5.79436 14.963 6.40692 15.4251L6.41411 15.4305L6.43029 15.443L9.32878 17.6154L10.7668 18.7021L11.6404 19.3627C11.7429 19.4401 11.8678 19.482 11.9963 19.482C12.1247 19.482 12.2497 19.4401 12.3522 19.3627L13.2258 18.7021L14.6638 17.6154L17.583 15.4305L17.5911 15.4242C18.2036 14.9623 18.6494 14.3139 18.8613 13.5766C19.0731 12.8393 19.0396 12.0531 18.7657 11.3365Z" fill="#E24329"/>
<path d="M18.7664 11.3364L18.7475 11.2861C17.8192 11.4766 16.9445 11.8701 16.186 12.4384L12.0023 15.6021L14.6662 17.6154L17.5854 15.4304L17.5935 15.4242C18.2057 14.9621 18.6511 14.3135 18.8627 13.5762C19.0742 12.8389 19.0404 12.0529 18.7664 11.3364Z" fill="#FC6D26"/>
<path d="M9.32953 17.6155L10.7675 18.7022L11.6411 19.3628C11.7436 19.4402 11.8686 19.4821 11.997 19.4821C12.1255 19.4821 12.2505 19.4402 12.353 19.3628L13.2265 18.7022L14.6646 17.6155L12.0006 15.6022L9.32953 17.6155Z" fill="#FCA326"/>
<path d="M7.81347 12.4383C7.05533 11.8703 6.18091 11.4772 5.25291 11.287L5.23314 11.3364C4.95895 12.053 4.92517 12.8394 5.1369 13.5768C5.34862 14.3143 5.79436 14.963 6.40692 15.425L6.41411 15.4304L6.43029 15.443L9.32878 17.6154L11.9945 15.6021L7.81347 12.4383Z" fill="#FC6D26"/>
</svg>
