<svg width="16" height="16" viewBox="0 0 16 16" fill="none" xmlns="http://www.w3.org/2000/svg">
<g clip-path="url(#clip0_188_3125)">
<g clip-path="url(#clip1_188_3125)">
<g clip-path="url(#clip2_188_3125)">
<path d="M0 4C0 1.79086 1.79086 0 4 0H12C14.2091 0 16 1.79086 16 4V12C16 14.2091 14.2091 16 12 16H4C1.79086 16 0 14.2091 0 12V4Z" fill="#DDDEE1"/>
<g clip-path="url(#clip3_188_3125)">
<path d="M9.67969 8C9.67969 8.92767 8.92767 9.67969 8 9.67969C7.07233 9.67969 6.32031 8.92767 6.32031 8C6.32031 7.07233 7.07233 6.32031 8 6.32031C8.92767 6.32031 9.67969 7.07233 9.67969 8Z" fill="#101214"/>
<path fill-rule="evenodd" clip-rule="evenodd" d="M8 12.6875C10.5888 12.6875 12.6875 10.5888 12.6875 8C12.6875 5.41117 10.5888 3.3125 8 3.3125C5.41117 3.3125 3.3125 5.41117 3.3125 8C3.3125 10.5888 5.41117 12.6875 8 12.6875ZM10.9297 8C10.9297 9.61802 9.61802 10.9297 8 10.9297C6.38198 10.9297 5.07031 9.61802 5.07031 8C5.07031 6.38198 6.38198 5.07031 8 5.07031C9.61802 5.07031 10.9297 6.38198 10.9297 8Z" fill="#101214"/>
</g>
</g>
</g>
</g>
<defs>
<clipPath id="clip0_188_3125">
<rect width="16" height="16" fill="white"/>
</clipPath>
<clipPath id="clip1_188_3125">
<rect width="16" height="16" fill="white"/>
</clipPath>
<clipPath id="clip2_188_3125">
<path d="M0 4C0 1.79086 1.79086 0 4 0H12C14.2091 0 16 1.79086 16 4V12C16 14.2091 14.2091 16 12 16H4C1.79086 16 0 14.2091 0 12V4Z" fill="white"/>
</clipPath>
<clipPath id="clip3_188_3125">
<rect width="15" height="15" fill="white" transform="translate(0.5 0.5)"/>
</clipPath>
</defs>
</svg>
