<svg width="24" height="24" viewBox="0 0 24 24" fill="none" xmlns="http://www.w3.org/2000/svg">
<path d="M0 6.39569C0 2.86345 2.86345 0 6.39569 0H17.6043C21.1366 0 24 2.86345 24 6.39569V17.6043C24 21.1366 21.1366 24 17.6043 24H6.39569C2.86345 24 0 21.1366 0 17.6043V6.39569Z" fill="#FF5C35"/>
<path fill-rule="evenodd" clip-rule="evenodd" d="M15.7971 7.46474V9.2409C17.4795 9.48905 18.8235 10.7083 19.1682 12.2992C19.513 13.8901 18.786 15.518 17.3448 16.3827C15.9036 17.2473 14.0512 17.1667 12.6983 16.1806L11.1856 17.6242C11.2248 17.7413 11.2456 17.8633 11.2474 17.9863C11.2474 18.4986 10.924 18.9605 10.428 19.1566C9.93199 19.3526 9.36107 19.2442 8.98145 18.882C8.60182 18.5197 8.48826 17.9748 8.69371 17.5015C8.89916 17.0282 9.38317 16.7195 9.92003 16.7195C10.0488 16.7213 10.1767 16.7412 10.2994 16.7785L11.8285 15.3192C10.8644 14.0104 10.8396 12.2713 11.7658 10.9378L6.74112 7.20495C6.49869 7.33973 6.22335 7.41123 5.94277 7.41222C5.05081 7.4112 4.3286 6.72034 4.32967 5.86914C4.33074 5.01794 5.05468 4.32873 5.94663 4.32974C6.8386 4.33076 7.56081 5.02162 7.55975 5.87283C7.55766 6.00271 7.5382 6.13181 7.50182 6.25698L12.6124 10.0516C13.1699 9.62376 13.836 9.34409 14.5432 9.2409V7.46474C14.041 7.24096 13.7193 6.76092 13.7168 6.23211V6.19066C13.7189 5.43696 14.3586 4.82648 15.1484 4.82445H15.1918C15.9816 4.82648 16.6213 5.43696 16.6235 6.19066V6.23211C16.621 6.76092 16.2992 7.24096 15.7971 7.46474ZM13.0774 13.0861C13.0774 14.1891 14.0144 15.0833 15.1703 15.0833C16.3262 15.0833 17.2632 14.1891 17.2632 13.0861C17.2632 11.983 16.3262 11.0888 15.1703 11.0888C14.0144 11.0888 13.0774 11.983 13.0774 13.0861Z" fill="white"/>
</svg>
