<svg width="16" height="16" viewBox="0 0 16 16" fill="none" xmlns="http://www.w3.org/2000/svg">
<g clip-path="url(#clip0_188_2820)">
<g clip-path="url(#clip1_188_2820)">
<path d="M0 4C0 1.79086 1.79086 0 4 0H12C14.2091 0 16 1.79086 16 4V12C16 14.2091 14.2091 16 12 16H4C1.79086 16 0 14.2091 0 12V4Z" fill="#FFC716"/>
<g clip-path="url(#clip2_188_2820)">
<path d="M9.13385 6.80172H12.1094C12.5563 6.80172 12.7089 7.2268 12.4364 7.56468L7.78233 13.3087C6.27821 12.1097 6.41991 10.2132 7.52074 8.82901L9.13385 6.80172ZM6.83408 9.09059H3.85855C3.41167 9.09059 3.25908 8.66552 3.53157 8.32764L8.18561 2.58366C9.68972 3.78259 9.52623 5.65728 8.43629 7.05241L6.83408 9.09059Z" fill="#101214"/>
</g>
</g>
</g>
<defs>
<clipPath id="clip0_188_2820">
<rect width="16" height="16" fill="white"/>
</clipPath>
<clipPath id="clip1_188_2820">
<rect width="16" height="16" fill="white"/>
</clipPath>
<clipPath id="clip2_188_2820">
<rect width="9.17609" height="10.725" fill="white" transform="translate(3.39587 2.5835)"/>
</clipPath>
</defs>
</svg>
