<svg width="16" height="16" viewBox="0 0 16 16" fill="none" xmlns="http://www.w3.org/2000/svg">
<g clip-path="url(#clip0_188_3051)">
<path d="M0 4C0 1.79086 1.79086 0 4 0H12C14.2091 0 16 1.79086 16 4V12C16 14.2091 14.2091 16 12 16H4C1.79086 16 0 14.2091 0 12V4Z" fill="#625DF5"/>
<path d="M12.6876 7.65464H9.9949L12.3269 6.30828L11.8148 5.42102L9.48279 6.76737L10.8288 4.43559L9.94158 3.92318L8.59552 6.25495V3.5625H7.57124V6.25521L6.22467 3.92318L5.33768 4.43534L6.684 6.76712L4.35203 5.42102L3.83988 6.30802L6.17185 7.65438H3.47922V8.67871H6.1716L3.83988 10.0251L4.35203 10.9123L6.68374 9.56622L5.33743 11.898L6.22467 12.4101L7.57098 10.0781V12.7708H8.59528V10.0784L9.94134 12.4101L10.8286 11.898L9.48226 9.56598L11.8142 10.9123L12.3264 10.0251L9.99466 8.67895H12.687V7.65464H12.6876ZM8.08338 9.55976C7.31105 9.55976 6.68503 8.93377 6.68503 8.16139C6.68503 7.38903 7.31105 6.76299 8.08338 6.76299C8.85573 6.76299 9.48172 7.38903 9.48172 8.16139C9.48172 8.93377 8.85573 9.55976 8.08338 9.55976Z" fill="white"/>
</g>
<defs>
<clipPath id="clip0_188_3051">
<rect width="16" height="16" fill="white"/>
</clipPath>
</defs>
</svg>
