<svg width="24" height="24" viewBox="0 0 24 24" fill="none" xmlns="http://www.w3.org/2000/svg">
<path d="M17.1962 5.81068H9.67062C9.33346 5.81068 9.05603 6.08522 9.05603 6.41886V7.11015L13.2977 8.40974L17.8108 7.11015V6.41886C17.8108 6.08522 17.5333 5.81068 17.1962 5.81068Z" fill="#0364B8"/>
<path d="M18.5331 12.4835C18.5972 12.2841 18.6484 12.0808 18.6863 11.8749C18.6863 11.7719 18.6307 11.6764 18.5405 11.625L18.5348 11.6219L18.5331 11.6211L13.7888 8.9467C13.7684 8.93359 13.7472 8.92156 13.7254 8.91072C13.5417 8.82061 13.3256 8.82061 13.1419 8.91072C13.1201 8.92156 13.0989 8.93353 13.0784 8.9467L8.33423 11.6211L8.33245 11.6219L8.32672 11.625C8.23662 11.6764 8.18097 11.7719 8.18103 11.8749C8.21892 12.0808 8.27011 12.2841 8.33423 12.4835L13.3647 16.1243L18.5331 12.4835Z" fill="#0A2767"/>
<path d="M15.1846 7.11011H12.1204L11.2357 8.4097L12.1204 9.70916L15.1846 12.3082H17.811V9.70916L15.1846 7.11011Z" fill="#28A8EA"/>
<path fill-rule="evenodd" clip-rule="evenodd" d="M9.05661 7.11006H12.1208V9.70905H9.05661V7.11006Z" fill="#0078D4"/>
<path fill-rule="evenodd" clip-rule="evenodd" d="M15.1845 7.11006H17.8109V9.70905H15.1845V7.11006Z" fill="#50D9FF"/>
<path d="M15.1849 12.3081L12.1208 9.70906H9.05661V12.3081L12.1208 14.9071L16.8623 15.6729L15.1849 12.3081Z" fill="#0364B8"/>
<path fill-rule="evenodd" clip-rule="evenodd" d="M12.1201 9.70906H15.1843V12.3081H12.1201V9.70906Z" fill="#0078D4"/>
<path fill-rule="evenodd" clip-rule="evenodd" d="M9.05661 12.3082H12.1208V14.9072H9.05661V12.3082Z" fill="#064A8C"/>
<path fill-rule="evenodd" clip-rule="evenodd" d="M15.1845 12.3082H17.8109V14.9072H15.1845V12.3082Z" fill="#0078D4"/>
<path d="M13.5171 15.8679L8.35443 12.1426L8.57067 11.7662C8.57067 11.7662 13.2742 14.4172 13.3459 14.4571C13.4054 14.4807 13.4722 14.4788 13.5303 14.4518C13.5972 14.4146 18.3156 11.7532 18.3156 11.7532L18.5327 12.1296L13.5171 15.8679Z" fill="#0A2767" fill-opacity="0.498039"/>
<path d="M18.5406 12.1248L18.5349 12.1283L18.5336 12.1292L13.7894 14.8036C13.598 14.9257 13.3556 14.9406 13.1503 14.843L14.8028 17.0352L18.4159 17.8137V17.8154C18.5862 17.6935 18.6873 17.4976 18.6873 17.2895V11.8749C18.6873 11.9779 18.6316 12.0734 18.5415 12.1248H18.5406Z" fill="#1490DF"/>
<path d="M18.6858 17.2895V16.9698L14.3159 14.5059L13.7884 14.8031C13.5971 14.9252 13.3546 14.9402 13.1494 14.8424L14.8018 17.0348L18.4149 17.8131V17.8149C18.5852 17.6929 18.6863 17.4971 18.6863 17.289L18.6858 17.2895Z" fill="black" fill-opacity="0.047059"/>
<path d="M18.664 17.4555L13.8738 14.7552L13.7884 14.8032C13.5971 14.9254 13.3546 14.9404 13.1494 14.8426L14.8018 17.035L18.4149 17.8133V17.8151C18.5375 17.7271 18.6257 17.5999 18.6644 17.4551L18.664 17.4555Z" fill="black" fill-opacity="0.098039"/>
<path d="M8.33381 12.1305V12.1261H8.32948L8.3163 12.1175C8.23136 12.0658 8.17979 11.9736 8.18061 11.8749V17.2904C8.18061 17.6464 8.47664 17.9393 8.8364 17.9393H18.0298C18.0844 17.9387 18.1389 17.9315 18.1917 17.9176C18.2192 17.9129 18.2457 17.9041 18.2706 17.8917C18.2798 17.8907 18.2888 17.8878 18.2968 17.883C18.3326 17.8685 18.3664 17.8496 18.3975 17.8266L18.415 17.8137L8.33381 12.1305Z" fill="#28A8EA"/>
<path d="M12.558 15.6292V8.55428C12.557 8.23784 12.2943 7.9778 11.9745 7.97685H9.0697V11.2065L8.3338 11.6215L8.33209 11.6224L8.32642 11.6254C8.23625 11.677 8.1806 11.7724 8.1806 11.8753V16.2084V16.2066H11.9745C12.2943 16.2057 12.557 15.9456 12.558 15.6292Z" fill="black" fill-opacity="0.098039"/>
<path d="M12.1203 16.0623V8.98739C12.1193 8.67101 11.8565 8.41097 11.5368 8.40996H9.0697V11.2065L8.3338 11.6215L8.33209 11.6224L8.32642 11.6254C8.23625 11.6769 8.1806 11.7724 8.1806 11.8753V16.6415V16.6398H11.5368C11.8565 16.6388 12.1193 16.3788 12.1203 16.0623ZM12.1203 15.196V8.98739C12.1193 8.67101 11.8565 8.41097 11.5368 8.40996H9.0697V11.2065L8.3338 11.6215L8.33209 11.6224L8.32642 11.6254C8.23625 11.6769 8.1806 11.7724 8.1806 11.8753V15.7751V15.7734H11.5368C11.8565 15.7725 12.1193 15.5124 12.1203 15.196ZM11.6825 15.196V8.98739C11.6816 8.67101 11.4188 8.41097 11.0991 8.40996H9.0697V11.2065L8.3338 11.6215L8.33209 11.6224L8.32642 11.6254C8.23625 11.6769 8.1806 11.7724 8.1806 11.8753V15.7751V15.7734H11.0991C11.4188 15.7725 11.6816 15.5124 11.6825 15.196Z" fill="black" fill-opacity="0.2"/>
<path d="M5.26217 8.40959H11.0985C11.4186 8.40959 11.682 8.6702 11.682 8.98696V14.7624C11.682 15.0792 11.4186 15.3399 11.0985 15.3399H5.26217C4.94207 15.3399 4.67865 15.0792 4.67865 14.7624V8.98696C4.67865 8.6702 4.94207 8.40959 5.26217 8.40959Z" fill="#0078D4"/>
<path d="M6.37126 10.7781C6.5263 10.4511 6.77667 10.1775 7.09002 9.99236C7.43724 9.79565 7.8326 9.69766 8.23254 9.70907C8.60294 9.701 8.96856 9.79394 9.28923 9.97762C9.59098 10.1554 9.83403 10.4163 9.9887 10.7283C10.1572 11.0721 10.2412 11.4504 10.2338 11.8325C10.2421 12.2318 10.1555 12.6275 9.98131 12.9878C9.82321 13.3108 9.57283 13.5811 9.26121 13.7649C8.92806 13.9543 8.54881 14.0498 8.16466 14.0408C7.78624 14.0497 7.41253 13.9557 7.08435 13.7691C6.78024 13.591 6.53426 13.3299 6.3761 13.0172C6.20653 12.6783 6.12152 12.3041 6.12834 11.926C6.12082 11.5301 6.20405 11.1377 6.3717 10.7781H6.37126ZM7.13727 12.6225C7.21998 12.8293 7.36026 13.0087 7.54179 13.1397C7.72651 13.2678 7.94798 13.3338 8.17339 13.3282C8.41357 13.3376 8.65037 13.2695 8.84796 13.1341C9.02727 13.0031 9.16385 12.8227 9.24064 12.6156C9.32699 12.3847 9.36952 12.1401 9.36627 11.894C9.36895 11.6457 9.32896 11.3987 9.24809 11.1637C9.17678 10.9521 9.0451 10.7653 8.86897 10.6261C8.67661 10.484 8.44044 10.4118 8.20058 10.4217C7.97026 10.4157 7.74383 10.4821 7.55402 10.6114C7.36911 10.7429 7.22571 10.9238 7.14077 11.1329C6.95293 11.6117 6.95184 12.143 7.13771 12.6225H7.13727Z" fill="white"/>
</svg>
