<svg width="24" height="24" viewBox="0 0 24 24" fill="none" xmlns="http://www.w3.org/2000/svg">
<mask id="mask0_188_7288" style="mask-type:luminance" maskUnits="userSpaceOnUse" x="4" y="7" width="15" height="10">
<path d="M4.99902 6.99991H18.999V16.7793H4.99902V6.99991Z" fill="white"/>
</mask>
<g mask="url(#mask0_188_7288)">
<path fill-rule="evenodd" clip-rule="evenodd" d="M10.8113 8.0709C11.2632 7.60046 11.8922 7.30914 12.5871 7.30914C13.5135 7.30914 14.3165 7.82384 14.7488 8.59076C15.1326 8.41919 15.5483 8.33062 15.9687 8.33083C17.6363 8.33083 18.99 9.6948 18.99 11.3779C18.99 13.061 17.6363 14.4249 15.9687 14.4249C15.7648 14.4249 15.5662 14.4045 15.3716 14.3658C14.9933 15.04 14.2701 15.4981 13.4466 15.4981C13.1113 15.4988 12.7803 15.4227 12.479 15.2758C12.0955 16.1765 11.2025 16.8096 10.1628 16.8096C9.07676 16.8096 8.15544 16.125 7.80029 15.1625C7.64222 15.1959 7.4811 15.2126 7.31955 15.2126C6.02764 15.2126 4.98279 14.1523 4.98279 12.85C4.98279 11.975 5.45323 11.2133 6.15117 10.8015C6.0031 10.4604 5.92689 10.0925 5.92727 9.72064C5.92727 8.2177 7.14713 7.00299 8.65007 7.00299C9.53021 7.00299 10.3177 7.42248 10.8118 8.07358" fill="#00A1E0"/>
</g>
<path fill-rule="evenodd" clip-rule="evenodd" d="M7.02436 12.0854C7.01556 12.1084 7.0275 12.1131 7.03033 12.1172C7.05663 12.1363 7.08335 12.1501 7.11011 12.1655C7.2532 12.2412 7.38805 12.2633 7.52908 12.2633C7.81629 12.2633 7.99489 12.1105 7.99489 11.8644V11.8596C7.99489 11.6321 7.79313 11.5492 7.60474 11.49L7.58009 11.4821C7.43752 11.4358 7.3145 11.3956 7.3145 11.3019V11.2971C7.3145 11.2168 7.38656 11.1576 7.49774 11.1576C7.62127 11.1576 7.76847 11.1988 7.86266 11.2508C7.86266 11.2508 7.89056 11.2688 7.9007 11.2419C7.90621 11.2273 7.95423 11.0988 7.95938 11.0844C7.96483 11.0693 7.95526 11.058 7.94543 11.0521C7.83734 10.9862 7.68808 10.9414 7.53366 10.9414L7.50499 10.9415C7.24198 10.9415 7.05823 11.1006 7.05823 11.3281V11.333C7.05823 11.5728 7.26102 11.651 7.45044 11.7051L7.48091 11.7146C7.61885 11.757 7.73826 11.7938 7.73826 11.8906V11.8954C7.73826 11.9845 7.66054 12.0509 7.53598 12.0509C7.48755 12.0509 7.33319 12.05 7.16591 11.9443C7.14568 11.9325 7.13415 11.924 7.11855 11.9145C7.11032 11.9095 7.08973 11.9005 7.08077 11.9275L7.02416 12.085M11.2293 12.085C11.2205 12.108 11.2324 12.1127 11.2354 12.1168C11.2616 12.1358 11.2884 12.1496 11.3152 12.1651C11.4582 12.2408 11.5931 12.2629 11.7341 12.2629C12.0213 12.2629 12.1999 12.1101 12.1999 11.864V11.8592C12.1999 11.6317 11.9987 11.5488 11.8098 11.4896L11.7851 11.4817C11.6426 11.4354 11.5195 11.3952 11.5195 11.3015V11.2967C11.5195 11.2164 11.5916 11.1572 11.7028 11.1572C11.8263 11.1572 11.973 11.1984 12.0677 11.2504C12.0677 11.2504 12.0956 11.2684 12.1058 11.2415C12.1113 11.2269 12.1593 11.0984 12.164 11.084C12.1695 11.0689 12.1598 11.0575 12.1501 11.0517C12.042 10.9858 11.8927 10.941 11.7383 10.941L11.7096 10.9411C11.4466 10.9411 11.2628 11.1002 11.2628 11.3277V11.3325C11.2628 11.5724 11.4656 11.6506 11.655 11.7047L11.6854 11.7141C11.8239 11.7566 11.9428 11.7934 11.9428 11.8902V11.895C11.9428 11.9841 11.8651 12.0505 11.7405 12.0505C11.692 12.0505 11.5372 12.0496 11.3704 11.9439C11.3502 11.9321 11.3384 11.924 11.323 11.9141C11.3178 11.9108 11.2936 11.9013 11.2853 11.9271L11.2287 12.0846M14.1007 11.6028C14.1007 11.7418 14.0748 11.8514 14.0241 11.9291C13.9734 12.0058 13.8969 12.0434 13.7904 12.0434C13.6838 12.0434 13.6077 12.0061 13.5577 11.9297C13.5074 11.8525 13.4821 11.7423 13.4821 11.6033C13.4821 11.4644 13.5076 11.3552 13.5577 11.2786C13.6076 11.2024 13.6833 11.1658 13.7904 11.1658C13.8974 11.1658 13.9736 11.2027 14.0241 11.2786C14.0751 11.3552 14.1007 11.4644 14.1007 11.6033M14.3406 11.3455C14.317 11.2657 14.2804 11.1957 14.2315 11.137C14.1825 11.0783 14.1208 11.031 14.0472 10.997C13.9741 10.9628 13.8877 10.9455 13.7899 10.9455C13.6921 10.9455 13.6061 10.9629 13.5325 10.997C13.4594 11.0312 13.3971 11.0783 13.3482 11.137C13.2995 11.1957 13.2628 11.2657 13.2391 11.3455C13.2157 11.4247 13.2038 11.5112 13.2038 11.6033C13.2038 11.6955 13.2157 11.7819 13.2391 11.8612C13.2626 11.941 13.2993 12.011 13.3482 12.0697C13.3972 12.1283 13.4594 12.1752 13.5325 12.2086C13.6061 12.242 13.6926 12.259 13.7899 12.259C13.8871 12.259 13.9736 12.242 14.0467 12.2086C14.1198 12.1753 14.1821 12.1283 14.231 12.0697C14.2798 12.011 14.3164 11.941 14.3401 11.8612C14.3635 11.7819 14.3753 11.6955 14.3753 11.6033C14.3753 11.5117 14.3635 11.4247 14.3401 11.3455M16.3114 12.0043C16.3035 11.981 16.2808 11.9898 16.2808 11.9898C16.2459 12.0031 16.2087 12.0155 16.1691 12.0216C16.1291 12.0279 16.0847 12.0311 16.0378 12.0311C15.922 12.0311 15.8294 11.9965 15.7635 11.9281C15.6971 11.8597 15.66 11.7495 15.6606 11.6002C15.6609 11.4644 15.6938 11.3625 15.7527 11.2842C15.8109 11.207 15.9004 11.1669 16.0188 11.1669C16.1176 11.1669 16.1933 11.1783 16.2725 11.2031C16.2725 11.2031 16.2913 11.2113 16.3003 11.1866C16.3214 11.1284 16.3369 11.0867 16.3595 11.0229C16.3659 11.0046 16.3503 10.9969 16.3446 10.9947C16.3135 10.9825 16.2401 10.9626 16.1845 10.9542C16.1325 10.9463 16.0723 10.9422 16.0043 10.9422C15.9035 10.9422 15.8139 10.9594 15.7372 10.9936C15.6605 11.0277 15.5957 11.0749 15.5442 11.1336C15.4927 11.1923 15.4536 11.2623 15.4273 11.3421C15.4014 11.4213 15.3882 11.5083 15.3882 11.6005C15.3882 11.7991 15.4418 11.9602 15.5478 12.0781C15.6538 12.1965 15.8134 12.2562 16.0213 12.2562C16.1443 12.2562 16.2704 12.2313 16.361 12.1955C16.361 12.1955 16.3783 12.1871 16.3708 12.1669L16.3116 12.0043M16.7311 11.469C16.7426 11.3918 16.7637 11.3275 16.797 11.2775C16.8468 11.2013 16.9226 11.1597 17.0291 11.1597C17.1357 11.1597 17.2062 11.2016 17.2566 11.2775C17.2901 11.3277 17.3047 11.3944 17.3101 11.469L16.7285 11.4689L16.7311 11.469ZM17.5392 11.2991C17.5188 11.2225 17.4682 11.1447 17.4352 11.1092C17.3827 11.0531 17.3318 11.0135 17.2808 10.9919C17.2072 10.9606 17.1281 10.9445 17.0482 10.9447C16.9468 10.9447 16.8546 10.9618 16.78 10.9966C16.7054 11.0318 16.6426 11.0795 16.5932 11.1392C16.5438 11.1989 16.5067 11.2694 16.483 11.3503C16.4593 11.43 16.4474 11.5175 16.4474 11.6091C16.4474 11.7028 16.4598 11.7898 16.4842 11.8686C16.5088 11.9478 16.5485 12.0173 16.6021 12.075C16.6556 12.1331 16.724 12.1784 16.8064 12.2103C16.8882 12.242 16.9876 12.2584 17.1013 12.258C17.336 12.2573 17.4596 12.205 17.51 12.1767C17.519 12.1717 17.5275 12.163 17.5169 12.1379L17.4639 11.9892C17.4558 11.967 17.4333 11.975 17.4333 11.975C17.3751 11.9967 17.2928 12.0357 17.0998 12.0352C16.9737 12.035 16.8805 11.9978 16.8218 11.9395C16.7621 11.8798 16.7323 11.7928 16.7276 11.6693L17.5409 11.6699C17.5409 11.6699 17.5623 11.6697 17.5645 11.6488C17.5654 11.6401 17.5924 11.482 17.5403 11.2993L17.5392 11.2991ZM10.2304 11.469C10.2418 11.3918 10.263 11.3275 10.2962 11.2775C10.3461 11.2013 10.4218 11.1597 10.5284 11.1597C10.6349 11.1597 10.7054 11.2016 10.7559 11.2775C10.7893 11.3277 10.8039 11.3944 10.8094 11.469L10.2278 11.4689L10.2304 11.469ZM11.0385 11.2991C11.0181 11.2225 10.9674 11.1447 10.9345 11.1092C10.882 11.0531 10.831 11.0135 10.7801 10.9919C10.7065 10.9606 10.6274 10.9445 10.5474 10.9447C10.446 10.9447 10.3539 10.9618 10.2793 10.9966C10.2046 11.0318 10.1418 11.0795 10.0924 11.1392C10.0432 11.1989 10.006 11.2694 9.98227 11.3503C9.95865 11.43 9.94676 11.5175 9.94676 11.6091C9.94676 11.7028 9.95906 11.7898 9.98361 11.8686C10.0082 11.9478 10.048 12.0173 10.101 12.075C10.1545 12.1331 10.223 12.1784 10.3053 12.2103C10.3871 12.242 10.486 12.2584 10.6002 12.258C10.8349 12.2573 10.9585 12.205 11.0089 12.1767C11.0179 12.1717 11.0264 12.163 11.0158 12.1379L10.9627 11.9892C10.9546 11.967 10.9321 11.975 10.9321 11.975C10.874 11.9967 10.7916 12.0357 10.5986 12.0352C10.473 12.035 10.3793 11.9978 10.3206 11.9395C10.2609 11.8798 10.2311 11.7928 10.2265 11.6693L11.0397 11.6699C11.0397 11.6699 11.0611 11.6697 11.0633 11.6488C11.0642 11.6401 11.0912 11.482 11.039 11.2993L11.0385 11.2991ZM8.47522 11.9991C8.44335 11.9737 8.43893 11.9675 8.42838 11.951C8.41227 11.9261 8.40403 11.8907 8.40403 11.8455C8.40403 11.7744 8.42771 11.723 8.47661 11.6885C8.47609 11.6886 8.54661 11.6277 8.71234 11.6298C8.78611 11.6311 8.85971 11.6374 8.93263 11.6486V12.0176H8.93274C8.93274 12.0176 8.8298 12.0398 8.71347 12.0468C8.54825 12.0567 8.47516 11.9992 8.47568 11.9994L8.47522 11.9991ZM8.79845 11.4278C8.76551 11.4254 8.72279 11.4242 8.67183 11.4242C8.60235 11.4242 8.53492 11.4329 8.47213 11.4498C8.40882 11.4669 8.35169 11.4934 8.30279 11.5286C8.25376 11.5636 8.21343 11.6094 8.18492 11.6624C8.15615 11.716 8.14148 11.7787 8.14148 11.8498C8.14148 11.9218 8.15399 11.9841 8.17869 12.0351C8.2029 12.0856 8.23935 12.1293 8.28472 12.1622C8.32986 12.195 8.38561 12.2193 8.44994 12.2337C8.51377 12.2483 8.58583 12.2557 8.66509 12.2557C8.74847 12.2557 8.83134 12.2487 8.91163 12.2351C8.98002 12.2233 9.04815 12.2101 9.11597 12.1954C9.14305 12.1892 9.17311 12.181 9.17311 12.181C9.19318 12.1759 9.19163 12.1544 9.19163 12.1544L9.19117 11.4133C9.19117 11.2506 9.14773 11.1296 9.06198 11.055C8.97654 10.9804 8.85147 10.9428 8.68933 10.9428C8.6286 10.9428 8.53029 10.951 8.47161 10.9628C8.47161 10.9628 8.29455 10.9972 8.22147 11.0545C8.22147 11.0545 8.20541 11.0643 8.21416 11.0867L8.2718 11.2411C8.27896 11.2612 8.29847 11.2543 8.29847 11.2543C8.29847 11.2543 8.30459 11.2519 8.3118 11.2476C8.46775 11.1627 8.6654 11.1653 8.6654 11.1653C8.7529 11.1653 8.82084 11.183 8.86613 11.2178C8.91045 11.2518 8.93305 11.3032 8.93305 11.4113V11.4456C8.86356 11.4355 8.79922 11.4297 8.79922 11.4297L8.79845 11.4278ZM15.3352 11.0094C15.3364 11.0066 15.337 11.0037 15.337 11.0008C15.337 10.9978 15.3365 10.9949 15.3353 10.9922C15.3342 10.9894 15.3325 10.987 15.3304 10.9849C15.3283 10.9828 15.3258 10.9812 15.323 10.9801C15.3092 10.9749 15.2401 10.9603 15.1871 10.957C15.0852 10.9506 15.0286 10.9678 14.9776 10.9907C14.9273 11.0134 14.8716 11.0499 14.8407 11.0921L14.8406 10.9933C14.8406 10.9797 14.831 10.9687 14.8173 10.9687H14.6094C14.5959 10.9687 14.5861 10.9797 14.5861 10.9933V12.2028C14.5861 12.2093 14.5887 12.2156 14.5933 12.2202C14.598 12.2248 14.6042 12.2275 14.6108 12.2275H14.8239C14.8304 12.2275 14.8366 12.2248 14.8413 12.2202C14.8459 12.2156 14.8485 12.2093 14.8485 12.2028V11.5955C14.8485 11.5141 14.8574 11.4333 14.8753 11.3824C14.8929 11.332 14.9168 11.2918 14.9463 11.263C14.9744 11.2351 15.0089 11.2145 15.0467 11.2027C15.0821 11.1926 15.1189 11.1874 15.1558 11.1874C15.1983 11.1874 15.2448 11.1983 15.2448 11.1983C15.2605 11.2001 15.2692 11.1905 15.2745 11.1764C15.2884 11.1393 15.328 11.0281 15.3357 11.006" fill="#FFFFFE"/>
<path fill-rule="evenodd" clip-rule="evenodd" d="M13.345 10.4511C13.3186 10.4431 13.2918 10.4367 13.2647 10.432C13.2283 10.4259 13.1913 10.4231 13.1544 10.4235C13.0075 10.4235 12.8918 10.465 12.8105 10.5469C12.7298 10.6282 12.6749 10.7521 12.6473 10.9151L12.6374 10.9701H12.4531C12.4531 10.9701 12.4306 10.9692 12.4259 10.9938L12.3956 11.1626C12.3935 11.1787 12.4004 11.1888 12.4221 11.1887H12.6015L12.4194 12.2049C12.4052 12.2868 12.3889 12.3541 12.3708 12.4051C12.353 12.4554 12.3356 12.4932 12.3142 12.5205C12.2934 12.547 12.2738 12.5665 12.2398 12.5779C12.2118 12.5873 12.1796 12.5917 12.1443 12.5917C12.1247 12.5917 12.0985 12.5884 12.0792 12.5845C12.0599 12.5807 12.0499 12.5764 12.0354 12.5703C12.0354 12.5703 12.0144 12.5623 12.0061 12.5834C11.9993 12.6006 11.9515 12.7321 11.9458 12.7484C11.9401 12.7645 11.9482 12.7771 11.9584 12.7808C11.9822 12.7893 12 12.7948 12.0325 12.8024C12.0777 12.8131 12.1158 12.8138 12.1515 12.8138C12.2262 12.8138 12.2943 12.8033 12.3508 12.7829C12.4076 12.7623 12.4571 12.7266 12.5008 12.6781C12.5481 12.6259 12.5779 12.5712 12.6063 12.4965C12.6345 12.4226 12.6585 12.3308 12.6777 12.2238L12.8606 11.1887H13.128C13.128 11.1887 13.1506 11.1896 13.1552 11.1651L13.1855 10.9963C13.1876 10.9801 13.1807 10.97 13.159 10.9701H12.8994C12.9007 10.9643 12.9125 10.873 12.9423 10.787C12.955 10.7503 12.979 10.7207 12.9992 10.7004C13.0182 10.681 13.0415 10.6665 13.0672 10.6581C13.0954 10.6493 13.1248 10.6451 13.1544 10.6455C13.1788 10.6455 13.2028 10.6484 13.2211 10.6523C13.2462 10.6576 13.256 10.6604 13.2626 10.6624C13.2891 10.6705 13.2926 10.6627 13.2978 10.6498L13.3599 10.4794C13.3663 10.461 13.3507 10.4533 13.345 10.4511ZM9.71763 12.2071C9.71763 12.2207 9.70796 12.2317 9.69437 12.2317H9.47907C9.46543 12.2317 9.45575 12.2207 9.45575 12.2071V10.4742C9.45575 10.4606 9.46543 10.4497 9.47907 10.4497H9.69437C9.70796 10.4497 9.71763 10.4606 9.71763 10.4742V12.2071Z" fill="#FFFFFE"/>
</svg>
