<svg width="24" height="24" viewBox="0 0 24 24" fill="none" xmlns="http://www.w3.org/2000/svg">
<g clip-path="url(#clip0_188_7311)">
<path d="M12.1852 13.1427C14.6513 13.1427 16.6504 11.096 16.6504 8.57128C16.6504 6.04655 14.6513 3.99985 12.1852 3.99985C9.71922 3.99985 7.72012 6.04655 7.72012 8.57128C7.72012 11.096 9.71922 13.1427 12.1852 13.1427Z" fill="#036C70"/>
<path d="M15.9059 16.9521C18.1664 16.9521 19.999 15.076 19.999 12.7616C19.999 10.4473 18.1664 8.57117 15.9059 8.57117C13.6454 8.57117 11.8129 10.4473 11.8129 12.7616C11.8129 15.076 13.6454 16.9521 15.9059 16.9521Z" fill="#1A9BA1"/>
<path d="M12.7433 19.9997C14.49 19.9997 15.9061 18.55 15.9061 16.7617C15.9061 14.9733 14.49 13.5236 12.7433 13.5236C10.9965 13.5236 9.58047 14.9733 9.58047 16.7617C9.58047 18.55 10.9965 19.9997 12.7433 19.9997Z" fill="#37C6D0"/>
<path opacity="0.1" d="M12.9301 8.12561V16.2551C12.9282 16.5376 12.761 16.7914 12.5059 16.8989C12.4247 16.9341 12.3374 16.9522 12.2492 16.9523H9.58496C9.58125 16.8875 9.58125 16.8266 9.58125 16.7618C9.58001 16.6982 9.58249 16.6346 9.58869 16.5713C9.65679 15.3536 10.3895 14.2792 11.4826 13.7942V13.0856C9.04987 12.6909 7.39022 10.3518 7.77574 7.86112C7.77842 7.84387 7.78118 7.82663 7.78405 7.80942C7.80256 7.68094 7.82866 7.55372 7.86218 7.42847H12.2492C12.6246 7.42993 12.9287 7.7412 12.9301 8.12561Z" fill="black"/>
<path opacity="0.2" d="M11.8762 7.80945H7.78314C7.36967 10.2957 9.00308 12.6543 11.4315 13.0776C11.505 13.0904 11.5788 13.1014 11.6529 13.1104C10.4994 13.6704 9.65886 15.2609 9.58742 16.5713C9.58123 16.6346 9.57874 16.6982 9.57997 16.7618C9.57997 16.8266 9.57997 16.8875 9.58369 16.9523C9.59041 17.0804 9.60658 17.2077 9.63206 17.3333H11.8758C12.1517 17.3314 12.3996 17.1602 12.5046 16.899C12.539 16.8158 12.5567 16.7264 12.5567 16.6361V8.50659C12.5553 8.12233 12.2515 7.81113 11.8762 7.80945Z" fill="black"/>
<path opacity="0.2" d="M11.8771 7.80945H7.78409C7.3707 10.2959 9.00436 12.6546 11.433 13.0779C11.4827 13.0865 11.5325 13.0943 11.5824 13.1013C10.4661 13.7016 9.6587 15.2883 9.58874 16.5714H11.8771C12.252 16.5685 12.5552 16.258 12.558 15.8742V8.50659C12.5566 8.12218 12.2526 7.81091 11.8771 7.80945Z" fill="black"/>
<path opacity="0.2" d="M11.5049 7.80945H7.78396C7.39362 10.1567 8.83021 12.4171 11.0844 13.0026C10.2309 14.001 9.70734 15.2501 9.58862 16.5714H11.5049C11.8804 16.5699 12.1844 16.2586 12.1858 15.8742V8.50659C12.1856 8.12166 11.8809 7.80966 11.5049 7.80945Z" fill="black"/>
<path d="M4.68147 7.80945H11.5034C11.8801 7.80945 12.1855 8.12208 12.1855 8.50773V15.4921C12.1855 15.8778 11.8801 16.1904 11.5034 16.1904H4.68147C4.30478 16.1904 3.99942 15.8778 3.99942 15.4921V8.50773C3.99942 8.12208 4.30478 7.80945 4.68147 7.80945Z" fill="url(#paint0_linear_188_7311)"/>
<path d="M7.04563 11.9145C6.8858 11.8059 6.75228 11.6614 6.6553 11.492C6.56134 11.3149 6.5145 11.1156 6.51949 10.9141C6.51112 10.6413 6.60104 10.3748 6.77214 10.1655C6.95193 9.95594 7.18432 9.80074 7.44414 9.71675C7.74024 9.61697 8.05038 9.5678 8.36209 9.57123C8.772 9.5559 9.18135 9.61458 9.57139 9.74457V10.6208C9.40191 10.5157 9.21733 10.4385 9.02441 10.3922C8.81509 10.3396 8.6003 10.3133 8.38478 10.3137C8.15751 10.3052 7.93169 10.3541 7.72729 10.4562C7.56949 10.5259 7.46716 10.6848 7.46683 10.8608C7.46619 10.9675 7.50624 11.0703 7.57846 11.1472C7.66376 11.238 7.76467 11.3119 7.87614 11.3651C8.00016 11.4284 8.18621 11.5125 8.43428 11.6173C8.46159 11.6262 8.48821 11.6371 8.5139 11.6501C8.75804 11.7478 8.99357 11.8667 9.2179 12.0055C9.38779 12.1128 9.53037 12.2598 9.63391 12.4345C9.74006 12.6325 9.79151 12.8564 9.78274 13.0821C9.79486 13.3622 9.71116 13.6378 9.54609 13.8615C9.38155 14.0672 9.16158 14.2187 8.91353 14.2973C8.62178 14.391 8.31728 14.4362 8.01157 14.4314C7.73729 14.4327 7.46341 14.4098 7.19297 14.3629C6.96463 14.3246 6.74179 14.2576 6.52953 14.1632V13.2394C6.73242 13.3878 6.95909 13.4987 7.1993 13.5671C7.4387 13.6434 7.68756 13.6842 7.93828 13.6882C8.17033 13.7032 8.40197 13.6529 8.60805 13.5427C8.75241 13.4593 8.84021 13.3013 8.83651 13.1316C8.83748 13.0136 8.79186 12.9001 8.71 12.817C8.60821 12.7146 8.49035 12.6306 8.36136 12.5682C8.21252 12.492 7.99335 12.3916 7.70387 12.2669C7.47357 12.1721 7.25307 12.054 7.04563 11.9145Z" fill="white"/>
</g>
<defs>
<linearGradient id="paint0_linear_188_7311" x1="5.4215" y1="7.26383" x2="10.9541" y2="16.6233" gradientUnits="userSpaceOnUse">
<stop stop-color="#058F92"/>
<stop offset="0.5" stop-color="#038489"/>
<stop offset="1" stop-color="#026D71"/>
</linearGradient>
<clipPath id="clip0_188_7311">
<rect width="16" height="16" fill="white" transform="translate(3.99988 3.99991)"/>
</clipPath>
</defs>
</svg>
