<svg width="24" height="24" viewBox="0 0 24 24" fill="none" xmlns="http://www.w3.org/2000/svg">
<g clip-path="url(#clip0_188_7330)">
<path d="M7.22227 13.8686C7.22227 14.7876 6.47947 15.5304 5.5604 15.5304C4.64134 15.5304 3.89853 14.7876 3.89853 13.8686C3.89853 12.9495 4.64134 12.2067 5.5604 12.2067H7.22227V13.8686ZM8.05321 13.8686C8.05321 12.9495 8.79601 12.2067 9.71508 12.2067C10.6341 12.2067 11.3769 12.9495 11.3769 13.8686V18.0232C11.3769 18.9423 10.6341 19.6851 9.71508 19.6851C8.79601 19.6851 8.05321 18.9423 8.05321 18.0232V13.8686Z" fill="#E01E5A"/>
<path d="M9.71519 7.19584C8.79612 7.19584 8.05332 6.45304 8.05332 5.53397C8.05332 4.61491 8.79612 3.8721 9.71519 3.8721C10.6343 3.8721 11.3771 4.61491 11.3771 5.53397V7.19584H9.71519ZM9.71519 8.03937C10.6343 8.03937 11.3771 8.78218 11.3771 9.70124C11.3771 10.6203 10.6343 11.3631 9.71519 11.3631H5.54792C4.62885 11.3631 3.88605 10.6203 3.88605 9.70124C3.88605 8.78218 4.62885 8.03937 5.54792 8.03937H9.71519Z" fill="#36C5F0"/>
<path d="M16.3747 9.70124C16.3747 8.78218 17.1175 8.03937 18.0366 8.03937C18.9556 8.03937 19.6984 8.78218 19.6984 9.70124C19.6984 10.6203 18.9556 11.3631 18.0366 11.3631H16.3747V9.70124ZM15.5437 9.70124C15.5437 10.6203 14.8009 11.3631 13.8819 11.3631C12.9628 11.3631 12.22 10.6203 12.22 9.70124V5.53397C12.22 4.61491 12.9628 3.8721 13.8819 3.8721C14.8009 3.8721 15.5437 4.61491 15.5437 5.53397V9.70124Z" fill="#2EB67D"/>
<path d="M13.8819 16.3614C14.8009 16.3614 15.5437 17.1042 15.5437 18.0232C15.5437 18.9423 14.8009 19.6851 13.8819 19.6851C12.9628 19.6851 12.22 18.9423 12.22 18.0232V16.3614H13.8819ZM13.8819 15.5304C12.9628 15.5304 12.22 14.7876 12.22 13.8686C12.22 12.9495 12.9628 12.2067 13.8819 12.2067H18.0491C18.9682 12.2067 19.711 12.9495 19.711 13.8686C19.711 14.7876 18.9682 15.5304 18.0491 15.5304H13.8819Z" fill="#ECB22E"/>
</g>
<defs>
<clipPath id="clip0_188_7330">
<rect width="15.9892" height="15.9892" fill="white" transform="translate(3.79721 3.79675)"/>
</clipPath>
</defs>
</svg>
