<svg width="16" height="16" viewBox="0 0 16 16" fill="none" xmlns="http://www.w3.org/2000/svg">
<g clip-path="url(#clip0_188_2889)">
<g clip-path="url(#clip1_188_2889)">
<g clip-path="url(#clip2_188_2889)">
<path d="M0 4C0 1.79086 1.79086 0 4 0H12C14.2091 0 16 1.79086 16 4V12C16 14.2091 14.2091 16 12 16H4C1.79086 16 0 14.2091 0 12V4Z" fill="#FB9700"/>
<path d="M8.28836 2.45333L9.80594 5.83517L13.4915 6.2336L13.6682 6.77853L10.9212 9.26681L11.6809 12.8957L11.218 13.2317L8.00223 11.3879L4.78641 13.2317L4.32254 12.8957L5.08231 9.26681L2.33524 6.77853L2.51199 6.2336L6.19754 5.83517L7.71609 2.45333H8.28836ZM7.95438 8.42208C7.27059 8.42208 6.71609 8.97658 6.71609 9.66036V10.1125C7.06486 10.3143 7.46951 10.4307 7.90067 10.4338H7.93582C8.3972 10.4304 8.82794 10.2971 9.19266 10.0686V9.66036C9.19266 8.97661 8.63812 8.42213 7.95438 8.42208ZM7.95438 6.16525C7.44163 6.16525 7.0258 6.58124 7.02567 7.09396C7.02567 7.60679 7.44154 8.02267 7.95438 8.02267C8.46717 8.02262 8.88309 7.60676 8.88309 7.09396C8.88295 6.58127 8.46708 6.1653 7.95438 6.16525Z" fill="#101214"/>
</g>
</g>
</g>
<defs>
<clipPath id="clip0_188_2889">
<rect width="16" height="16" fill="white"/>
</clipPath>
<clipPath id="clip1_188_2889">
<rect width="16" height="16" fill="white"/>
</clipPath>
<clipPath id="clip2_188_2889">
<path d="M0 4C0 1.79086 1.79086 0 4 0H12C14.2091 0 16 1.79086 16 4V12C16 14.2091 14.2091 16 12 16H4C1.79086 16 0 14.2091 0 12V4Z" fill="white"/>
</clipPath>
</defs>
</svg>
