<svg width="24" height="24" viewBox="0 0 24 24" fill="none" xmlns="http://www.w3.org/2000/svg">
<path d="M14.4627 10.3287H18.3372C18.7033 10.3287 19 10.6309 19 11.0037V14.5979C19 15.968 17.9094 17.0787 16.5641 17.0787H16.5526C15.2073 17.0789 14.1165 15.9684 14.1163 14.5983C14.1163 14.5981 14.1163 14.598 14.1163 14.5979V10.6815C14.1163 10.4867 14.2714 10.3287 14.4627 10.3287Z" fill="#5059C9"/>
<path d="M17.0816 9.61846C17.9486 9.61846 18.6514 8.90271 18.6514 8.01979C18.6514 7.13686 17.9486 6.42111 17.0816 6.42111C16.2146 6.42111 15.5118 7.13686 15.5118 8.01979C15.5118 8.90271 16.2146 9.61846 17.0816 9.61846Z" fill="#5059C9"/>
<path d="M12.1972 9.61824C13.4495 9.61824 14.4647 8.58438 14.4647 7.30904C14.4647 6.03371 13.4495 4.99985 12.1972 4.99985C10.945 4.99985 9.92981 6.03371 9.92981 7.30904C9.92981 8.58438 10.945 9.61824 12.1972 9.61824Z" fill="#7B83EB"/>
<path d="M15.2207 10.3287H8.82519C8.4635 10.3379 8.17739 10.6435 8.18578 11.0119V15.1113C8.13527 17.3218 9.85249 19.1562 12.023 19.2103C14.1934 19.1562 15.9107 17.3218 15.8601 15.1113V11.0119C15.8685 10.6435 15.5824 10.3379 15.2207 10.3287Z" fill="#7B83EB"/>
<path opacity="0.1" d="M12.3719 10.3287V16.0733C12.3701 16.3367 12.2134 16.5734 11.9742 16.6737C11.898 16.7065 11.8162 16.7234 11.7335 16.7234H8.49283C8.44748 16.6062 8.40562 16.489 8.37073 16.3682C8.24863 15.9605 8.18632 15.5367 8.18585 15.1105V11.0108C8.17746 10.6431 8.46311 10.3379 8.82422 10.3287H12.3719Z" fill="black"/>
<path opacity="0.2" d="M12.023 10.3287V16.4286C12.023 16.5128 12.0064 16.5961 11.9742 16.6737C11.8757 16.9173 11.6433 17.0769 11.3847 17.0787H8.65678C8.59748 16.9615 8.54167 16.8442 8.49283 16.7234C8.44399 16.6026 8.40562 16.489 8.37073 16.3682C8.24863 15.9605 8.18632 15.5367 8.18585 15.1105V11.0108C8.17746 10.6431 8.46311 10.3379 8.82422 10.3287H12.023Z" fill="black"/>
<path opacity="0.2" d="M12.023 10.3287V15.718C12.0204 16.076 11.7361 16.3655 11.3847 16.3682H8.37073C8.24863 15.9605 8.18632 15.5367 8.18585 15.1105V11.0108C8.17746 10.6431 8.46311 10.3379 8.82422 10.3287H12.023Z" fill="black"/>
<path opacity="0.2" d="M11.6742 10.3287V15.718C11.6715 16.076 11.3873 16.3655 11.0358 16.3682H8.37073C8.24863 15.9605 8.18632 15.5367 8.18585 15.1105V11.0108C8.17746 10.6431 8.46311 10.3379 8.82422 10.3287H11.6742Z" fill="black"/>
<path opacity="0.1" d="M12.3723 8.49201V9.61108C12.313 9.61463 12.2572 9.61819 12.1979 9.61819C12.1386 9.61819 12.0828 9.61464 12.0235 9.61108C11.9058 9.60312 11.789 9.5841 11.6747 9.55424C10.9683 9.38387 10.3847 8.87934 10.1049 8.19715C10.0568 8.08258 10.0194 7.96363 9.99329 7.84189H11.734C12.086 7.84325 12.371 8.13352 12.3723 8.49201Z" fill="black"/>
<path opacity="0.2" d="M12.0232 8.84748V9.61129C11.9055 9.60333 11.7887 9.58431 11.6744 9.55445C10.968 9.38408 10.3844 8.87955 10.1046 8.19736H11.3848C11.7368 8.19871 12.0219 8.48899 12.0232 8.84748Z" fill="black"/>
<path opacity="0.2" d="M12.0232 8.84748V9.61129C11.9055 9.60333 11.7887 9.58431 11.6744 9.55445C10.968 9.38408 10.3844 8.87955 10.1046 8.19736H11.3848C11.7368 8.19871 12.0219 8.48899 12.0232 8.84748Z" fill="black"/>
<path opacity="0.2" d="M11.6744 8.84748V9.55445C10.968 9.38408 10.3844 8.87955 10.1046 8.19736H11.036C11.388 8.19872 11.673 8.489 11.6744 8.84748Z" fill="black"/>
<path d="M4.63953 8.19736H11.0351C11.3882 8.19736 11.6745 8.48891 11.6745 8.84855V15.3619C11.6745 15.7215 11.3882 16.0131 11.0351 16.0131H4.63953C4.28639 16.0131 4.00012 15.7215 4.00012 15.3619V8.84855C4.00012 8.48891 4.2864 8.19736 4.63953 8.19736Z" fill="url(#paint0_linear_188_7249)"/>
<path d="M9.51998 10.6762H8.24149V14.2217H7.42697V10.6762H6.15442V9.98837H9.51998V10.6762Z" fill="white"/>
<defs>
<linearGradient id="paint0_linear_188_7249" x1="5.33331" y1="7.68853" x2="10.4797" y2="16.4406" gradientUnits="userSpaceOnUse">
<stop stop-color="#5A62C3"/>
<stop offset="0.5" stop-color="#4D55BD"/>
<stop offset="1" stop-color="#3940AB"/>
</linearGradient>
</defs>
</svg>
