<svg width="16" height="16" viewBox="0 0 16 16" fill="none" xmlns="http://www.w3.org/2000/svg">
<g clip-path="url(#clip0_188_2946)">
<g clip-path="url(#clip1_188_2946)">
<path d="M0 4C0 1.79086 1.79086 0 4 0H12C14.2091 0 16 1.79086 16 4V12C16 14.2091 14.2091 16 12 16H4C1.79086 16 0 14.2091 0 12V4Z" fill="#1558BC"/>
<path d="M6.44852 12C6.7596 12 7.01206 11.7543 7.01206 11.4506V4.54937C7.01206 4.24611 6.76004 4 6.44852 4H4.06354C3.75246 4 3.5 4.24568 3.5 4.54937V11.4506C3.5 11.7539 3.75202 12 4.06354 12H6.44852Z" fill="white"/>
<path d="M11.9365 8.83173C12.2475 8.83173 12.5 8.58605 12.5 8.28236V4.54937C12.5 4.24611 12.248 4 11.9365 4H9.55148C9.2404 4 8.98794 4.24568 8.98794 4.54937V8.28236C8.98794 8.58563 9.23996 8.83173 9.55148 8.83173H11.9365Z" fill="white"/>
</g>
</g>
<defs>
<clipPath id="clip0_188_2946">
<rect width="16" height="16" fill="white"/>
</clipPath>
<clipPath id="clip1_188_2946">
<rect width="16" height="16" fill="white"/>
</clipPath>
</defs>
</svg>
