<svg width="80" height="80" viewBox="0 0 80 80" fill="none" xmlns="http://www.w3.org/2000/svg">
<mask id="mask0_5_199236" style="mask-type:luminance" maskUnits="userSpaceOnUse" x="3" y="9" width="48" height="50">
<path d="M50.99 27.93C50.99 33.57 49.04 37.81 45.72 40.8C44.13 42.24 42.2 43.38 40.04 44.27C36.56 45.7 32.43 46.41 27.93 46.48L15.74 58.36V44.83C15.12 44.63 14.53 44.42 13.95 44.18C11.86 43.3 9.99 42.19 8.42 40.8C5.02 37.8 3 33.57 3 27.93C3 22.29 5.09 17.76 8.57 14.7C10.11 13.35 11.92 12.26 13.94 11.4C17.72 9.79 22.26 9 27.17 9C32.08 9 36.37 9.76 40.04 11.29C42.13 12.15 44 13.28 45.57 14.69C48.98 17.76 50.99 22.12 50.99 27.92V27.93Z" fill="white"/>
</mask>
<g mask="url(#mask0_5_199236)">
<path d="M103.89 -57.97H-54.67V85.08H103.89V-57.97Z" fill="#AF59E1"/>
<path d="M55.95 -57.97H-54.67V-11.37C-40.34 5.02003 -20.07 15.55 4.24002 19.61C9.10002 20.42 14.12 20.98 19.29 21.27C22.09 21.43 24.93 21.51 27.81 21.51C35.67 21.51 43.23 20.91 50.44 19.74C71.8 16.27 90.05 7.72002 103.89 -5.44997V-57.97H55.95Z" fill="#FCA700"/>
<path d="M55.95 -57.97C38.09 -44.64 25.85 -25.01 21.27 0.280029C20.07 6.89003 19.4 13.9 19.29 21.27C19.28 22.02 19.27 22.77 19.27 23.53C19.27 31.62 19.94 39.28 21.24 46.47C23.91 61.33 29.25 74.24 36.82 85.07H103.89V-57.97H55.95Z" fill="#1868DB"/>
<path d="M50.44 19.74C92.76 12.86 122.91 -13.92 130.65 -57.24C131.83 -63.87 132.49 -70.89 132.59 -78.28C130.09 -78.41 127.56 -78.47 125 -78.47C116.8 -78.47 108.93 -77.82 101.44 -76.57C59.16 -69.51 29.09 -42.85 21.29 0.280029C20.09 6.89003 19.42 13.9 19.31 21.27C22.11 21.43 24.95 21.51 27.83 21.51C35.69 21.51 43.25 20.91 50.46 19.74H50.44Z" fill="#6A9A23"/>
</g>
<path d="M28.61 45.53C28.61 51.17 30.56 55.41 33.88 58.4C35.47 59.84 37.4 60.98 39.56 61.87C43.04 63.3 47.17 64.01 51.67 64.08L63.86 75.96V62.43C64.48 62.23 65.07 62.02 65.65 61.78C67.74 60.9 69.61 59.79 71.18 58.4C74.58 55.4 76.6 51.17 76.6 45.53C76.6 39.89 74.51 35.36 71.03 32.3C69.49 30.95 67.68 29.86 65.66 29C61.88 27.39 57.34 26.6 52.43 26.6C47.52 26.6 43.23 27.36 39.56 28.89C37.47 29.75 35.6 30.88 34.03 32.29C30.62 35.36 28.61 39.72 28.61 45.52V45.53Z" fill="#DDDEE1"/>
<path d="M51.01 27.93C51.01 33.57 49.05 37.81 45.74 40.8C44.14 42.24 42.21 43.38 40.06 44.27C36.76 45.62 32.88 46.33 28.65 46.46C28.64 46.15 28.63 45.84 28.63 45.53C28.63 39.74 30.64 35.38 34.05 32.3C35.62 30.91 37.48 29.78 39.57 28.91C42.87 27.53 46.75 26.78 50.98 26.64C51 27.07 51.01 27.49 51.01 27.93Z" fill="#101214"/>
</svg>
