<svg width="32" height="32" viewBox="0 0 32 32" fill="none" xmlns="http://www.w3.org/2000/svg">
<g clip-path="url(#clip0_101_1086)">
<g clip-path="url(#clip1_101_1086)">
<path d="M0 8C0 3.58172 3.58172 0 8 0H24C28.4183 0 32 3.58172 32 8V24C32 28.4183 28.4183 32 24 32H8C3.58172 32 0 28.4183 0 24V8Z" fill="#1868DB"/>
<g clip-path="url(#clip2_101_1086)">
<path d="M11.965 20.6979H10.162C7.44256 20.6979 5.4917 19.0323 5.4917 16.5933H15.1869C15.6894 16.5933 16.0145 16.9502 16.0145 17.4558V27.2119C13.5907 27.2119 11.965 25.2488 11.965 22.5123V20.6979ZM16.7535 15.8497H14.9504C12.231 15.8497 10.2802 14.2137 10.2802 11.7747H19.9754C20.4779 11.7747 20.8326 12.1019 20.8326 12.6076V22.3636C18.4088 22.3636 16.7535 20.4005 16.7535 17.664V15.8497ZM21.5716 11.0311H19.7685C17.0491 11.0311 15.0982 9.36546 15.0982 6.92645H24.7934C25.2959 6.92645 25.6211 7.28338 25.6211 7.75929V17.5153C23.1973 17.5153 21.5716 15.5522 21.5716 12.8158V11.0311Z" fill="white"/>
</g>
</g>
</g>
<defs>
<clipPath id="clip0_101_1086">
<rect width="32" height="32" fill="white"/>
</clipPath>
<clipPath id="clip1_101_1086">
<rect width="32" height="32" fill="white"/>
</clipPath>
<clipPath id="clip2_101_1086">
<rect width="20.1294" height="20.2854" fill="white" transform="translate(5.4917 6.92676)"/>
</clipPath>
</defs>
</svg>
